<svg id="visual" viewBox="0 0 960 300" width="960" height="300" xmlns="http://www.w3.org/2000/svg" xmlns:xlink="http://www.w3.org/1999/xlink" version="1.1"><rect x="0" y="0" width="960" height="300" fill="#FF0066"></rect><g transform="translate(474.30051655642717 163.93727553876593)"><path d="M65.6 -100C88.4 -87.5 112.4 -74.9 124.9 -54.9C137.5 -34.9 138.5 -7.4 128.3 13.8C118 35 96.4 49.9 77.6 61.9C58.9 73.9 43 83 25.1 90.4C7.3 97.9 -12.4 103.6 -32.4 101.7C-52.4 99.8 -72.7 90.2 -91.9 75.5C-111.1 60.8 -129.3 41 -122.3 23.7C-115.4 6.3 -83.3 -8.5 -71.9 -32.7C-60.6 -56.8 -70 -90.2 -61.5 -109.2C-53 -128.1 -26.5 -132.6 -2.5 -128.6C21.4 -124.7 42.9 -112.4 65.6 -100" fill="#BB004B"></path></g></svg>