<svg id="visual" viewBox="0 0 960 300" width="960" height="300" xmlns="http://www.w3.org/2000/svg" xmlns:xlink="http://www.w3.org/1999/xlink" version="1.1"><rect x="0" y="0" width="960" height="300" fill="#FF0066"></rect><g transform="translate(475.2037670381439 139.94085019578702)"><path d="M60.4 -102.2C69 -88.6 60.1 -56 61.6 -33.7C63.2 -11.4 75.1 0.6 84.6 20.1C94.1 39.6 101.1 66.6 93.6 88.5C86.1 110.4 64.2 127.2 40.7 130.1C17.3 133 -7.7 122.2 -32.5 113.6C-57.3 105 -81.9 98.7 -86.4 81.5C-90.8 64.4 -75.1 36.5 -69.3 15.6C-63.5 -5.2 -67.7 -19 -65.3 -32.1C-62.9 -45.2 -53.9 -57.5 -41.9 -69.5C-29.9 -81.5 -15 -93.3 5.5 -101.8C26 -110.4 51.9 -115.8 60.4 -102.2" fill="#BB004B"></path></g></svg>