<svg id="visual" viewBox="0 0 960 300" width="960" height="300" xmlns="http://www.w3.org/2000/svg" xmlns:xlink="http://www.w3.org/1999/xlink" version="1.1"><rect x="0" y="0" width="960" height="300" fill="#202731"></rect><path d="M0 125L22.8 128.8C45.7 132.7 91.3 140.3 137 147.8C182.7 155.3 228.3 162.7 274 157.3C319.7 152 365.3 134 411.2 129.2C457 124.3 503 132.7 548.8 141.3C594.7 150 640.3 159 686 157C731.7 155 777.3 142 823 142.3C868.7 142.7 914.3 156.3 937.2 163.2L960 170L960 0L937.2 0C914.3 0 868.7 0 823 0C777.3 0 731.7 0 686 0C640.3 0 594.7 0 548.8 0C503 0 457 0 411.2 0C365.3 0 319.7 0 274 0C228.3 0 182.7 0 137 0C91.3 0 45.7 0 22.8 0L0 0Z" fill="#386979"></path><path d="M0 105L22.8 112.7C45.7 120.3 91.3 135.7 137 133.2C182.7 130.7 228.3 110.3 274 105.5C319.7 100.7 365.3 111.3 411.2 112.7C457 114 503 106 548.8 110.3C594.7 114.7 640.3 131.3 686 129.8C731.7 128.3 777.3 108.7 823 104.7C868.7 100.7 914.3 112.3 937.2 118.2L960 124L960 0L937.2 0C914.3 0 868.7 0 823 0C777.3 0 731.7 0 686 0C640.3 0 594.7 0 548.8 0C503 0 457 0 411.2 0C365.3 0 319.7 0 274 0C228.3 0 182.7 0 137 0C91.3 0 45.7 0 22.8 0L0 0Z" fill="#3286a2"></path><path d="M0 65L22.8 69.3C45.7 73.7 91.3 82.3 137 80.8C182.7 79.3 228.3 67.7 274 68.8C319.7 70 365.3 84 411.2 89.2C457 94.3 503 90.7 548.8 84.2C594.7 77.7 640.3 68.3 686 70.8C731.7 73.3 777.3 87.7 823 87.3C868.7 87 914.3 72 937.2 64.5L960 57L960 0L937.2 0C914.3 0 868.7 0 823 0C777.3 0 731.7 0 686 0C640.3 0 594.7 0 548.8 0C503 0 457 0 411.2 0C365.3 0 319.7 0 274 0C228.3 0 182.7 0 137 0C91.3 0 45.7 0 22.8 0L0 0Z" fill="#22a2cf"></path><path d="M0 69L22.8 65.8C45.7 62.7 91.3 56.3 137 53.2C182.7 50 228.3 50 274 49C319.7 48 365.3 46 411.2 41.7C457 37.3 503 30.7 548.8 28.5C594.7 26.3 640.3 28.7 686 30.8C731.7 33 777.3 35 823 39.3C868.7 43.7 914.3 50.3 937.2 53.7L960 57L960 0L937.2 0C914.3 0 868.7 0 823 0C777.3 0 731.7 0 686 0C640.3 0 594.7 0 548.8 0C503 0 457 0 411.2 0C365.3 0 319.7 0 274 0C228.3 0 182.7 0 137 0C91.3 0 45.7 0 22.8 0L0 0Z" fill="#00bfff"></path></svg>