<svg id="visual" viewBox="0 0 960 300" width="960" height="300" xmlns="http://www.w3.org/2000/svg" xmlns:xlink="http://www.w3.org/1999/xlink" version="1.1"><rect x="0" y="0" width="960" height="300" fill="#202731"></rect><path d="M0 184L22.8 179.8C45.7 175.7 91.3 167.3 137 168.3C182.7 169.3 228.3 179.7 274 187C319.7 194.3 365.3 198.7 411.2 193.2C457 187.7 503 172.3 548.8 169.5C594.7 166.7 640.3 176.3 686 177.3C731.7 178.3 777.3 170.7 823 173.2C868.7 175.7 914.3 188.3 937.2 194.7L960 201L960 0L937.2 0C914.3 0 868.7 0 823 0C777.3 0 731.7 0 686 0C640.3 0 594.7 0 548.8 0C503 0 457 0 411.2 0C365.3 0 319.7 0 274 0C228.3 0 182.7 0 137 0C91.3 0 45.7 0 22.8 0L0 0Z" fill="#f196c6"></path><path d="M0 139L22.8 138.3C45.7 137.7 91.3 136.3 137 136.3C182.7 136.3 228.3 137.7 274 137C319.7 136.3 365.3 133.7 411.2 133.7C457 133.7 503 136.3 548.8 143.3C594.7 150.3 640.3 161.7 686 164.2C731.7 166.7 777.3 160.3 823 160.3C868.7 160.3 914.3 166.7 937.2 169.8L960 173L960 0L937.2 0C914.3 0 868.7 0 823 0C777.3 0 731.7 0 686 0C640.3 0 594.7 0 548.8 0C503 0 457 0 411.2 0C365.3 0 319.7 0 274 0C228.3 0 182.7 0 137 0C91.3 0 45.7 0 22.8 0L0 0Z" fill="#f485be"></path><path d="M0 130L22.8 126.3C45.7 122.7 91.3 115.3 137 115.5C182.7 115.7 228.3 123.3 274 129C319.7 134.7 365.3 138.3 411.2 139.8C457 141.3 503 140.7 548.8 137.2C594.7 133.7 640.3 127.3 686 125.5C731.7 123.7 777.3 126.3 823 129.5C868.7 132.7 914.3 136.3 937.2 138.2L960 140L960 0L937.2 0C914.3 0 868.7 0 823 0C777.3 0 731.7 0 686 0C640.3 0 594.7 0 548.8 0C503 0 457 0 411.2 0C365.3 0 319.7 0 274 0C228.3 0 182.7 0 137 0C91.3 0 45.7 0 22.8 0L0 0Z" fill="#f872b4"></path><path d="M0 107L22.8 107.8C45.7 108.7 91.3 110.3 137 106.7C182.7 103 228.3 94 274 89.5C319.7 85 365.3 85 411.2 89.3C457 93.7 503 102.3 548.8 103C594.7 103.7 640.3 96.3 686 90.8C731.7 85.3 777.3 81.7 823 82.8C868.7 84 914.3 90 937.2 93L960 96L960 0L937.2 0C914.3 0 868.7 0 823 0C777.3 0 731.7 0 686 0C640.3 0 594.7 0 548.8 0C503 0 457 0 411.2 0C365.3 0 319.7 0 274 0C228.3 0 182.7 0 137 0C91.3 0 45.7 0 22.8 0L0 0Z" fill="#fa5daa"></path><path d="M0 64L22.8 64.8C45.7 65.7 91.3 67.3 137 65.7C182.7 64 228.3 59 274 59.7C319.7 60.3 365.3 66.7 411.2 70.8C457 75 503 77 548.8 77.8C594.7 78.7 640.3 78.3 686 74.3C731.7 70.3 777.3 62.7 823 59.2C868.7 55.7 914.3 56.3 937.2 56.7L960 57L960 0L937.2 0C914.3 0 868.7 0 823 0C777.3 0 731.7 0 686 0C640.3 0 594.7 0 548.8 0C503 0 457 0 411.2 0C365.3 0 319.7 0 274 0C228.3 0 182.7 0 137 0C91.3 0 45.7 0 22.8 0L0 0Z" fill="#fd439f"></path><path d="M0 26L22.8 26.5C45.7 27 91.3 28 137 31.5C182.7 35 228.3 41 274 41.5C319.7 42 365.3 37 411.2 36.5C457 36 503 40 548.8 39.2C594.7 38.3 640.3 32.7 686 33C731.7 33.3 777.3 39.7 823 42.7C868.7 45.7 914.3 45.3 937.2 45.2L960 45L960 0L937.2 0C914.3 0 868.7 0 823 0C777.3 0 731.7 0 686 0C640.3 0 594.7 0 548.8 0C503 0 457 0 411.2 0C365.3 0 319.7 0 274 0C228.3 0 182.7 0 137 0C91.3 0 45.7 0 22.8 0L0 0Z" fill="#ff1493"></path></svg>